<svg xmlns="http://www.w3.org/2000/svg" width="23.3" height="23.3" viewBox="0 0 23.3 23.3">
    <g id="Group_1327" transform="translate(-14.85 -299.85)">
        <path id="Path_1406"
            d="M11.5 0A11.5 11.5 0 1 0 23 11.5 11.5 11.5 0 0 0 11.5 0zm0 21.563A10.063 10.063 0 1 1 21.563 11.5 10.063 10.063 0 0 1 11.5 21.563zm0 0"
            class="cls-1" transform="translate(15 300)" />
        <path id="Path_1407"
            d="M138.068 126.887a.719.719 0 0 0-1.016 0l-4.574 4.574-4.574-4.574a.719.719 0 0 0-1.034 1l.018.018 4.574 4.574-4.574 4.574a.719.719 0 0 0 1 1.034l.018-.018 4.574-4.574 4.574 4.574a.719.719 0 0 0 1.016-1.016l-4.574-4.574 4.574-4.574a.719.719 0 0 0-.002-1.018zm0 0"
            class="cls-1" transform="translate(-105.977 179.023)" />
    </g>
</svg>
